<svg width="1066" height="7" viewBox="0 0 1066 7" fill="none" xmlns="http://www.w3.org/2000/svg">
<path d="M0.333333 3.5C0.333333 4.97276 1.52724 6.16667 3 6.16667C4.47276 6.16667 5.66667 4.97276 5.66667 3.5C5.66667 2.02724 4.47276 0.833333 3 0.833333C1.52724 0.833333 0.333333 2.02724 0.333333 3.5ZM1060.33 3.5C1060.33 4.97276 1061.53 6.16667 1063 6.16667C1064.47 6.16667 1065.67 4.97276 1065.67 3.5C1065.67 2.02724 1064.47 0.833333 1063 0.833333C1061.53 0.833333 1060.33 2.02724 1060.33 3.5ZM3 4H1063V3H3V4Z" fill="#D1D5D8"/>
</svg>
